<?xml version="1.0" encoding="utf-8"?>
<!-- Generator: Adobe Illustrator 27.2.0, SVG Export Plug-In . SVG Version: 6.00 Build 0)  -->
<!DOCTYPE svg PUBLIC "-//W3C//DTD SVG 1.1//EN" "http://www.w3.org/Graphics/SVG/1.1/DTD/svg11.dtd" [
	<!ENTITY st0 "stroke:#000000;stroke-miterlimit:10;">
	<!ENTITY st1 "fill:#C22727;stroke:#000000;stroke-miterlimit:10;">
	<!ENTITY st2 "fill:#193D17;stroke:#000000;stroke-miterlimit:10;">
	<!ENTITY st3 "opacity:0.7686;fill:#FFFFFF;">
	<!ENTITY st4 "opacity:0.7608;fill:#FFFFFF;">
	<!ENTITY st5 "fill:#FFFFFF;stroke:#000000;stroke-miterlimit:10;">
	<!ENTITY st6 "fill:#7D2525;stroke:#000000;stroke-miterlimit:10;">
	<!ENTITY st7 "fill:none;stroke:#000000;stroke-miterlimit:10;">
]>
<svg version="1.1" xmlns="http://www.w3.org/2000/svg" xmlns:xlink="http://www.w3.org/1999/xlink" x="0px" y="0px"
	 viewBox="0 0 415 612" style="enable-background:new 0 0 415 612;" xml:space="preserve">
<g id="Layer_8">
	<path style="&st0;" d="M212.0696,381.0265c4.1343,13.5502,6.9868,27.7238,8.7912,41.7753c0.94,7.3203,2.004,6.0044-2.2401,8.5239
		c-3.2517,1.9304-6.8421,0.5629-7.6726-3.1263c-1.0385-4.6129,6.4487,0.6386,7.4597-2.6462
		c0.2264-0.7355,0.2259-1.2914,0.1343-2.0555c-1.7388-14.5107-4.8314-28.0085-8.8709-42.0611
		C209.6466,381.3272,209.6466,381.3272,212.0696,381.0265z"/>
	<path style="&st0;" d="M215.6889,383.9045c-3.5446,13.7162-8.5081,27.2954-14.3018,40.2234
		c-3.0183,6.735-1.424,6.1677-6.3592,6.1021c-3.7812-0.0502-6.1303-3.0904-4.9135-6.6709c1.5215-4.4769,5.1676,3.9101,7.7443,1.6357
		c0.5769-0.5093,0.8666-0.9837,1.1872-1.6833c6.0894-13.2855,10.4953-26.4134,14.3829-40.5087
		C213.4651,382.8965,213.4651,382.8965,215.6889,383.9045z"/>
</g>
<g id="Head">
	<path style="&st1;" d="M190.2722,213.7572c-8.6633-8.497-25.1399-11.4113-36.9176-8.4892
		c-11.7776,2.9221-22.4506,5.5626-30.4562,14.6819c-11.4827,13.0801-17.2259,30.5135-14.7634,47.7437
		c1.2928,9.0459,3.7641,22.4577,7.6864,30.7109c12.1755,25.6195,25.7493,52.7895,50.3991,66.8249
		c13.7529,7.8307,30.7874,16.7665,46.5905,17.6179c22.9992,1.239,46.302-8.1256,64.8682-21.7563
		c13.501-9.9121,22.8797-24.4351,30.4832-39.3587c8.1164-15.93,14.599-32.8217,17.614-50.4441
		c2.9973-17.5193,2.0936-36.8901-8.5146-51.1511c-6.4693-8.697-15.9991-14.7007-26.0201-18.8322
		c-24.1409-9.9531-57.4582-6.5148-75.4207,12.4376c-5.1636,5.4482-4.0493,10.1288-11.538,10.6437
		C196.8232,224.899,195.7985,220.3174,190.2722,213.7572z"/>
	<g id="Stem">
		<path style="&st2;" d="M191.2539,214.1434c3.1241-27.0328,26.6607-48.1105,45.8933-67.3625s39.3644-22.4907,63.8373-31.5124
			c1.9125-0.705,2.5832-5.129,3.3978-7.2728c1.5938-4.1943,3.2283-8.604,6.7503-11.3839c2.2874-1.8054,5.7601-1.5501,8.1668,0.0929
			s3.8541,4.4059,4.55,7.2356c2.0219,8.2222-2.2692,17.5624-9.8246,21.3845c-6.5687,3.323-14.3593,2.5536-21.6469,3.5931
			c-7.2318,1.0314-14.0811,3.8912-20.5815,7.2239c-15.5628,7.979-29.7524,18.9589-40.2691,32.9325s-17.4728,29.2854-17.9602,46.4945
			c-0.4842,1.4633-1.1282,3-2.5992,5.3182c-0.7516,1.1845-2.1258,1.8604-3.3845,2.4798c-3.1811,1.5652-7.1212,1.3261-10.0089-0.7307
			C194.6868,220.5795,192.7238,216.8952,191.2539,214.1434z"/>
		<path style="&st2;" d="M391.9629,32.2313"/>
	</g>
	<path style="&st3;" d="M311.9424,235.2262c-0.6208-11.6858-14.034-20.4187-25.053-24.3587
		c-3.3032-1.1811-5.4166-1.8411-9.456-1.7552c-0.5577,0.0119-3.9875,0.5089-3.9516,1.0656
		c0.024,0.3718,9.0868-1.1065,21.7137,7.8517c18.5214,13.14,14.7379,17.8391,16.3846,21.3838
		C312.1987,240.7451,311.9916,236.1539,311.9424,235.2262z"/>
	<path style="&st4;" d="M311.3178,242.349c0.5644,1.6824,0.9273,1.0287,0.3928,3.4254c-0.3442,1.5437,1.4813-0.3585,1.1018-1.894
		C312.3832,242.1432,310.6483,240.3531,311.3178,242.349z"/>
</g>
<g id="Eyes">
	<path style="&st5;" d="M176.1406,242.1328c-7.3756-0.2585-10.457,2.0159-14.2526,5.0496
		c-3.7956,3.0336-6.1499,7.4829-7.8472,12.0016c-4.9401,13.1522-5.054,27.9266-0.8224,41.3171
		c1.8624,5.8935,4.6413,11.6748,9.1896,15.9151s11.1081,6.7205,17.1959,5.2899c5.228-1.2286,9.4981-5.1652,12.1092-9.7989
		c2.6111-4.6337,3.7487-9.9299,4.4593-15.1848c1.1-8.1354,1.2561-16.3835,0.6833-24.5715c-0.4725-6.754-1.534-13.7315-5.3096-19.385
		C187.7703,247.1123,184.1155,242.4796,176.1406,242.1328z"/>
	<g id="Layer_3_copy">
		<path style="&st5;" d="M211.1105,327.9086c6.4994,1.1747,9.5233-0.4738,13.2782-2.7127c3.7549-2.239,6.4166-5.9332,8.5054-9.7737
			c6.0795-11.1784,8.0944-24.43,6.081-36.9944c-0.8861-5.5299-2.5986-11.0762-6.0778-15.4648
			c-3.4792-4.3886-8.9683-7.4539-14.5458-6.9473c-4.7898,0.4351-9.082,3.4242-11.995,7.2512
			c-2.913,3.827-4.6068,8.4372-5.9169,13.0648c-2.0283,7.1644-3.235,14.5505-3.7884,21.9759
			c-0.4565,6.1249-0.4202,12.5258,2.1917,18.0847C201.4547,321.9512,204.0918,326.578,211.1105,327.9086z"/>
	</g>
</g>
<g id="Pupils">
	<path style="&st0;" d="M178.9588,276.982c-4.1267-2.6245-10.0413-0.9436-13.2563,2.6353s-4.2638,8.5005-4.6131,13.2264
		c-0.4626,6.258,0.1033,12.5908,1.6704,18.6929c0.8515,3.3155,2.1555,6.7807,5.0268,8.8041
		c2.7938,1.9688,8.0953,2.5547,10.7541,0.422c3.9732-3.187,5.0522-5.6717,6.2905-9.2956c1.3136-3.844,1.4063-8.0621,1.8404-12.0908
		c0.3078-2.8565,0.1634-5.7445-0.1383-8.6051c-0.2561-2.4284-0.6328-4.8743-1.5848-7.1413
		C183.6285,280.4865,180.9493,278.2479,178.9588,276.982z"/>
	<path style="&st0;" d="M222.8695,287.9857c-3.4921-2.9662-9.2388-2.3167-12.7256,0.4362
		c-3.4869,2.7529-5.1358,7.0314-6.1056,11.2358c-1.2842,5.5675-1.6191,11.3526-0.9886,17.0762
		c0.3426,3.1098,1.0869,6.4206,3.4899,8.6621c2.338,2.181,7.2039,3.4831,9.9749,1.9512c4.1408-2.2892,5.4859-4.369,7.1349-7.4512
		c1.7492-3.2695,2.4104-7.0541,3.3642-10.6183c0.6763-2.5272,0.9351-5.1488,1.0434-7.7687c0.092-2.2241,0.0738-4.4816-0.5054-6.662
		C226.7483,291.8235,224.5539,289.4164,222.8695,287.9857z"/>
</g>
<g id="Eyelids">
	<path style="&st6;" d="M150.1812,275.4192c1.9551-2.0348,5.5935-2.0941,8.2366-1.1056c2.6431,0.9885,4.8721,2.8173,7.3136,4.2322
		c2.7735,1.6072,5.8514,2.6869,9.0211,3.1646c4.1147,0.6201,8.3668,0.2363,12.4059,1.2367c2.7766,0.6877,5.353,2.0067,8.0695,2.9027
		c0.4035,0.1331,0.8366,0.2578,1.2472,0.1483c0.9709-0.2588,1.1598-1.5337,1.1554-2.5385
		c-0.0305-6.9745-0.0698-14.0246-1.7135-20.8027s-5.0684-13.3621-10.6946-17.484s-13.6767-5.2999-19.6755-1.7418
		c-3.303,1.9592-5.7216,5.108-7.7757,8.3528C153.2757,258.8857,149.7486,267.1575,150.1812,275.4192z"/>
	<path style="&st6;" d="M197.6307,285.54c1.4748,4.1328,9.7725,1.4136,13.8997,2.9041c4.1272,1.4905,8.2432,3.3148,12.6266,3.5171
		c2.7569,0.1273,5.5219-0.3974,8.2715-0.1594c1.8345,0.1588,3.6388,0.6599,5.2924,1.4698c0.4678,0.2291,0.9774,0.4903,1.4839,0.3687
		c0.7592-0.1823,1.0596-1.084,1.2064-1.8508c1.5014-7.843,0.3554-16.1689-3.2091-23.3146
		c-2.0429-4.0954-4.9116-7.8534-8.6843-10.4443c-2.7852-1.9128-6.0961-3.1669-9.4747-3.1281
		c-4.4445,0.0511-8.6635,2.3534-11.7148,5.5854c-3.0513,3.232-4.44,6.8394-6.5055,10.7753
		c-2.0786,3.9609-3.3051,7.2413-3.1921,11.6223C197.6512,283.6821,197.5327,285.2654,197.6307,285.54z"/>
</g>
<g id="Mouth">
	<path style="&st7;" d="M170.0795,351.2716c6.316-5.1485,15.1967-6.8721,23.1023-4.8969
		c6.7632,1.6897,12.5967,5.9149,19.1028,8.4183c6.5061,2.5034,14.903,2.9541,19.5614-2.2321"/>
</g>
</svg>
