<?xml version="1.0" encoding="utf-8"?>
<!-- Generator: Adobe Illustrator 27.2.0, SVG Export Plug-In . SVG Version: 6.00 Build 0)  -->
<!DOCTYPE svg PUBLIC "-//W3C//DTD SVG 1.1//EN" "http://www.w3.org/Graphics/SVG/1.1/DTD/svg11.dtd" [
	<!ENTITY st0 "stroke:#0C3505;stroke-width:2;stroke-miterlimit:10;">
	<!ENTITY st1 "fill:#FFFFFF;stroke:#FFFFFF;stroke-width:2;stroke-miterlimit:10;">
	<!ENTITY st2 "fill:#FFFFFF;stroke:#000000;stroke-width:2;stroke-miterlimit:10;">
	<!ENTITY st3 "stroke:#000000;stroke-width:2;stroke-miterlimit:10;">
	<!ENTITY st4 "fill:#FFFFFF;stroke:#0C3505;stroke-width:2;stroke-miterlimit:10;">
]>
<svg version="1.1" xmlns="http://www.w3.org/2000/svg" xmlns:xlink="http://www.w3.org/1999/xlink" x="0px" y="0px"
	 viewBox="0 0 362 612" style="enable-background:new 0 0 362 612;" xml:space="preserve">
<g id="Left_leg">
	<path style="&st0;" d="M188.5351,490.0342c0-26.9089-0.2827-36.0369-0.9387-47.6306c-0.6622-0.0229-1.3183-0.1447-2.0092-0.2837
		c-1.5416-0.31-3.0764-0.6-4.581-1.0566c-1.3371-0.4058-2.6639-0.8258-3.982-1.2791c-0.3569-0.1227-0.7037-0.2801-1.0497-0.4389
		c0.4615,6.8381-0.4267,12.5283-0.4267,19.4636c0,12.5376,1.1082,25.9026,1.1082,39.8193c0,5.211-0.1123,11.3164-1.2898,16.4039
		c-0.2297,0.9924-0.5994,2.0398-1.4664,2.6262c-1.513,1.0233-3.5643,0.1445-5.253-0.5845
		c-4.7748-2.0612-10.1855-2.7479-15.3559-1.9489c-3.0567,0.4725-6.309,1.6762-7.7336,4.309
		c-0.7433,1.3738-0.8895,2.9863-0.7076,4.5238c0.7945,6.7145,7.5768,11.6555,14.5418,12.7354
		c6.965,1.0801,14.0299-0.8675,20.6859-3.1096c2.6143-0.8807,5.3897-1.943,6.8966-4.1706
		C188.0143,527.8752,188.5351,493.4777,188.5351,490.0342z"/>
</g>
<g id="Right_leg">
	<path style="&st0;" d="M236.0628,436.783c1.3158,14.5635,0.3125,23.0799,1.6645,54.1576
		c0.1304,2.9974-0.8363,36.9346-1.8765,38.4725c-1.5068,2.2275-4.2823,3.2899-6.8966,4.1705
		c-6.656,2.2422-13.7209,4.1897-20.6859,3.1097c-6.965-1.08-13.7474-6.0209-14.5419-12.7355
		c-0.1819-1.5375-0.0357-3.15,0.7076-4.5238c1.4246-2.6328,4.677-3.8366,7.7336-4.309c5.1705-0.7991,10.5811-0.1124,15.3559,1.9488
		c1.6887,0.7289,3.74,1.6078,5.253,0.5845c0.867-0.5864,1.2368-1.6337,1.4664-2.6262c1.1774-5.0875,1.2897-11.1929,1.2897-16.4039
		c0-13.9167-1.1082-27.2817-1.1082-39.8193c0-7.3908,1.0351-13.3451,0.3414-20.8065c3.8112-0.5537,6.7897-3.0464,10.7959-4.8358
		C235.7629,433.0367,235.9129,437.3579,236.0628,436.783z"/>
</g>
<g id="Right_arm_copy">
	<path style="&st0;" d="M205.7737,285.6074c-21.88,20.0376-47.153,50.0433-71.1231,50.0581
		c-1.0652,0.0006-2.241-0.0988-3.2542-0.4137c-1.9771-0.6144-5.1726-4.2103-3.8431-8.3661
		c0.5522-1.7261,2.4209-3.2011,4.0433-4.4455c2.7931-2.1422,12.8138-9.5846,20.0431-15.1294
		c11.5301-8.8434,23.1053-17.717,35.7852-24.9744c3.7364-2.1385,17.3522-11.2117,12.2672-3.1507
		C197.4412,282.7538,206.5818,286.1241,205.7737,285.6074z"/>
</g>
<g id="Body">
	<path style="&st0;" d="M204.8451,255.4302c-4.514,8.7055-7.5097,16.6597-13.4583,28.1318
		c-4.0524,7.8151-9.391,20.0734-12.815,25.4589c-3.6001,5.6626-6.5819,11.3412-13.7724,19.6074
		c-15.8616,18.2346-20.9315,38.5659-21.6736,54.8567c-0.4217,9.2568-0.6198,18.7265,2.4486,27.5137
		c4.7585,13.6273,16.7173,24.4632,30.7667,29.5047s29.4621,2.9511,44.132-0.0608c12.417-2.5493,14.8249-2.4889,21.2857-6.4341
		c17.5879-10.7395,18.3986-40.6457,14.2429-55.4923c-10.4989-37.5083-22.0227-37.1092-15.2126-72.99
		c1.9372-7.8181,5.22-46.5775,5.5688-48.4152c-13.0723-2.8139-7.0722-2.5122-19.2464-3.6929
		C218.4627,252.5793,207.7777,253.2423,204.8451,255.4302z"/>
</g>
<g id="Head">
	<path style="&st0;" d="M292.4653,148.3799c-10.9671-26.6793-17.345-33.6689-49.8183-45.1733
		c-8.0254-2.8432-25.1457-4.1144-43.045,0.0089c-14.8546,3.4219-37.8458,15.5997-44.2882,28.8677
		c-5.9616,12.2779-9.4537,25.6506-10.2289,39.1708c-24.466-14.1254-57.1309-14.0466-81.5223,0.1967
		c-9.0489,5.2841-17.0744,12.4824-21.9954,21.4722c-6.5611,11.9859-7.157,26.1294-6.2152,39.6326
		c0.8382,12.019,2.4206,20.3555,10.1261,34.3461c4.4449,8.0704,21.5712,19.6731,29.9607,23.9966
		c31.999,16.4908,64.501,9.6978,96.3698-7.0224c10.6711-5.5987,20.899-13.0792,33.0043-14.2557
		c16.0568-1.5606,31.4217,8.4203,47.518,7.2932c12.622-0.8839,23.9354-8.7473,30.9251-18.8517
		c6.9897-10.1045,10.1336-22.2303,11.5982-34.2697C298.2245,196.0867,301.4915,170.3375,292.4653,148.3799z"/>
	<path style="&st1;" d="M60.7832,253.0672c-1.8422-0.2275-5.1463-0.0176-6.4084,1.3436c-0.9405,1.0143-1.1835,2.4952-1.1531,3.878
		c0.0774,3.5246,1.6875,6.9404,4.1674,9.446c2.4799,2.5057,5.7812,4.1263,9.2339,4.8385c1.4232,0.2935,3.0318,0.4016,4.2047-0.4563
		c0.6723-0.4917,1.1097-1.2441,1.4117-2.0203c1.4371-3.6934,1.1265-8.5903-1.6464-11.4219
		C67.6239,255.6429,64.5577,253.5334,60.7832,253.0672z"/>
</g>
<g id="Eye">
	<path style="&st2;" d="M212.077,131.3988c-4.407-5.5036-11.1923-7.6887-18.2691-4.9401
		c-4.9142,1.9086-12.0755,8.8313-14.0699,13.5372c-5.8,13.6851-5.3582,29.7866,1.6857,42.9254
		c2.7183,5.0704,6.5142,9.8082,11.7296,12.5535c5.2154,2.7453,12.0211,3.161,16.985,0.0169
		c2.3573-1.4931,4.1614-3.6613,5.7074-5.9271c6.6456-9.7399,7.8167-18.196,6.9282-29.7999
		C222.0908,150.8441,221.4411,143.093,212.077,131.3988z"/>
</g>
<g id="Eye_pupil">
	<path style="&st3;" d="M200.4859,151.9051c-2.9416-2.0851-7.6767-0.3618-10.7522,1.5378
		c-3.0755,1.8996-4.9877,5.2179-5.7034,8.6552c-0.7157,3.4373-0.3456,7.0023,0.3656,10.4405
		c1.0009,4.8387,2.674,9.5494,4.9614,13.9689c1.4125,2.7292,3.2066,5.4849,6.0443,6.8606c3.9279,1.9044,8.9636,0.529,12.1082-2.4219
		c3.1446-2.951,4.6782-7.151,5.4074-11.3092c0.9627-5.4898-0.9202-10.9986-3.3178-16.0696
		C207.2017,158.4965,203.7757,154.237,200.4859,151.9051z"/>
</g>
<g id="Eye_lid">
	<path style="&st0;" d="M177.9979,148.5885c5.9441,0.8738,11.9025,1.7505,17.7099,3.2462c4.393,1.1314,8.6927,2.6152,13.1556,3.4591
		s16.3782,2.8186,13.4735-0.4438c-0.2414-7.8481-2.5192-15.6315-6.5719-22.4565c-1.4653-2.4676-3.1986-4.8524-5.5529-6.5769
		c-1.5022-1.1004-3.2263-1.9061-5.0235-2.4703c-4.7065-1.4775-10.0731-1.2386-14.3938,1.0805
		c-1.8344,0.9846-3.4457,2.3095-4.9528,3.7141c-4.8502,4.5202-8.8659,10.2645-9.5295,16.7148
		c-0.0897,0.872-0.1107,1.7859,0.2613,2.5864C176.9458,148.2426,177.8107,148.8926,177.9979,148.5885z"/>
</g>
<g id="Nostrils">
	<path style="&st4;" d="M67.7634,200.3876c-2.7805-1.1876-6.0082,0.2166-8.4713,1.9305c-2.7337,1.9022-5.3675,4.9173-4.4705,8.0374
		c0.7576,2.6352,3.8219,4.1065,6.6726,4.2354c3.6977,0.1672,7.59-1.618,9.205-4.8082S71.1958,201.8537,67.7634,200.3876z"/>
	<path style="&st4;" d="M41.0732,199.0792c-0.9209-1.7014-3.9108-1.1363-4.8451,0.5585c-0.9343,1.6947-0.433,3.7674,0.2168,5.58
		c0.4632,1.2923,1.0215,2.6064,2.0525,3.5506c1.031,0.9443,2.6535,1.4226,3.9227,0.7987c1.1444-0.5625,1.7088-1.8454,1.8568-3.0691
		C44.6342,203.5425,42.1436,201.057,41.0732,199.0792z"/>
</g>
<g id="Right_arm">
	<path style="&st0;" d="M242.9852,279.0583c16.8046,24.1164,43.2697,53.1641,39.1226,75.7749
		c-0.1843,1.0048-0.4908,2.0965-0.9905,2.9975c-0.9751,1.758-4.4343,5.3589-9.27,2.172c-1.5528-1.0234-2.8712-2.8392-3.869-4.5855
		c-1.7178-3.0064-7.6304-13.7502-12.0766-21.5316c-7.0911-12.4107-14.2055-24.8692-19.4663-38.089
		c-1.5502-3.8954-2.9219-8.3271-1.1095-12.1173C237.1383,279.8891,243.6569,278.3858,242.9852,279.0583z"/>
</g>
<g id="Ear">
	<path style="&st0;" d="M263.3561,129.239c-1.5518-5.8749-1.1749-13.4173,2.5954-18.9736
		c3.7703-5.5563,9.1971-10.2904,15.796-12.2828c8.9046-2.6886,19.369,0.2815,25.3063,7.1827
		c3.1804,3.6967,5.0572,8.2744,6.2937,12.9156c2.021,7.5858,2.4239,15.7329-0.1267,23.1709
		c-2.5506,7.438-8.3228,14.0635-16.0126,16.7189c-7.6897,2.6554-17.1842,0.728-22.2547-5.4127"/>
</g>
<g id="mouth">
</g>
</svg>
