<?xml version="1.0" encoding="utf-8"?>
<!-- Generator: Adobe Illustrator 27.2.0, SVG Export Plug-In . SVG Version: 6.00 Build 0)  -->
<!DOCTYPE svg PUBLIC "-//W3C//DTD SVG 1.1//EN" "http://www.w3.org/Graphics/SVG/1.1/DTD/svg11.dtd" [
	<!ENTITY st0 "stroke:#0C3505;stroke-width:2;stroke-miterlimit:10;">
	<!ENTITY st1 "fill:#FFFFFF;stroke:#FFFFFF;stroke-width:2;stroke-miterlimit:10;">
	<!ENTITY st2 "fill:#FFFFFF;stroke:#000000;stroke-width:2;stroke-miterlimit:10;">
	<!ENTITY st3 "stroke:#000000;stroke-width:2;stroke-miterlimit:10;">
	<!ENTITY st4 "fill:#FFFFFF;stroke:#0C3505;stroke-width:2;stroke-miterlimit:10;">
]>
<svg version="1.1" xmlns="http://www.w3.org/2000/svg" xmlns:xlink="http://www.w3.org/1999/xlink" x="0px" y="0px"
	 viewBox="0 0 362 612" style="enable-background:new 0 0 362 612;" xml:space="preserve">
<g id="Left_leg">
	<path style="&st0;" d="M188.5351,490.0342c0-26.9089-0.2827-36.0369-0.9387-47.6306c-0.6622-0.0229-1.3183-0.1447-2.0092-0.2837
		c-1.5416-0.31-3.0764-0.6-4.581-1.0566c-1.3371-0.4058-2.6639-0.8258-3.982-1.2791c-0.3569-0.1227-0.7037-0.2801-1.0497-0.4389
		c0.4615,6.8381-0.4267,12.5283-0.4267,19.4636c0,12.5376,1.1082,25.9026,1.1082,39.8193c0,5.211-0.1123,11.3164-1.2898,16.4039
		c-0.2297,0.9924-0.5994,2.0398-1.4664,2.6262c-1.513,1.0233-3.5643,0.1445-5.253-0.5845
		c-4.7748-2.0612-10.1855-2.7479-15.3559-1.9489c-3.0567,0.4725-6.309,1.6762-7.7336,4.309
		c-0.7433,1.3738-0.8895,2.9863-0.7076,4.5238c0.7945,6.7145,7.5768,11.6555,14.5418,12.7354
		c6.965,1.0801,14.0299-0.8675,20.6859-3.1096c2.6143-0.8807,5.3897-1.943,6.8966-4.1706
		C188.0143,527.8752,188.5351,493.4777,188.5351,490.0342z"/>
</g>
<g id="Right_leg">
	<path style="&st0;" d="M236.0628,436.783c1.3158,14.5635,0.3125,23.0799,1.6645,54.1576
		c0.1304,2.9974-0.8363,36.9346-1.8765,38.4725c-1.5068,2.2275-4.2823,3.2899-6.8966,4.1705
		c-6.656,2.2422-13.7209,4.1897-20.6859,3.1097c-6.965-1.08-13.7474-6.0209-14.5419-12.7355
		c-0.1819-1.5375-0.0357-3.15,0.7076-4.5238c1.4246-2.6328,4.677-3.8366,7.7336-4.309c5.1705-0.7991,10.5811-0.1124,15.3559,1.9488
		c1.6887,0.7289,3.74,1.6078,5.253,0.5845c0.867-0.5864,1.2368-1.6337,1.4664-2.6262c1.1774-5.0875,1.2897-11.1929,1.2897-16.4039
		c0-13.9167-1.1082-27.2817-1.1082-39.8193c0-7.3908,1.0351-13.3451,0.3414-20.8065c3.8112-0.5537,6.7897-3.0464,10.7959-4.8358
		C235.7629,433.0367,235.9129,437.3579,236.0628,436.783z"/>
</g>
<g id="Right_arm_copy">
	<path style="&st0;" d="M203.9224,284.3165c-26.5442,13.2531-59.0903,35.1579-82.1415,28.5847
		c-1.0244-0.2921-2.1275-0.7108-3.0152-1.2921c-1.7321-1.1341-3.8164-5.4697-1.396-9.1002
		c1.0053-1.5079,3.2074-2.4126,5.1093-3.1631c3.2742-1.2921,14.9544-5.6941,23.4292-9.0386
		c13.5164-5.3342,27.0846-10.6851,41.2708-14.1784c4.1802-1.0294,19.7652-6.0113,12.6607,0.3419
		C196.6949,279.2829,204.5573,285.0354,203.9224,284.3165z"/>
</g>
<g id="Body">
	<path style="&st0;" d="M204.8451,255.4302c-4.514,8.7055-7.5097,16.6597-13.4583,28.1318
		c-4.0524,7.8151-9.391,20.0734-12.815,25.4589c-3.6001,5.6626-6.5819,11.3412-13.7724,19.6074
		c-15.8616,18.2346-20.9315,38.5659-21.6736,54.8567c-0.4217,9.2568-0.6198,18.7265,2.4486,27.5137
		c4.7585,13.6273,16.7173,24.4632,30.7667,29.5047s29.4621,2.9511,44.132-0.0608c12.417-2.5493,14.8249-2.4889,21.2857-6.4341
		c17.5879-10.7395,18.3986-40.6457,14.2429-55.4923c-10.4989-37.5083-22.0227-37.1092-15.2126-72.99
		c1.9372-7.8181,5.22-46.5775,5.5688-48.4152c-13.0723-2.8139-7.0722-2.5122-19.2464-3.6929
		C218.4627,252.5793,207.7777,253.2423,204.8451,255.4302z"/>
</g>
<g id="Head">
	<path style="&st0;" d="M299.6836,156.8832c-7.1219-27.9525-12.4577-35.7666-42.9993-51.7064
		c-7.548-3.9393-24.3215-7.5962-42.6219-6.0208c-15.1875,1.3074-39.6578,10.1445-47.8952,22.3793
		c-7.6227,11.3218-12.9536,24.0734-15.615,37.3518c-22.2461-17.4133-54.6-21.9108-80.7461-11.2247
		c-9.6999,3.9644-18.6546,9.9676-24.7863,18.1794c-8.1754,10.9487-10.7466,24.8692-11.7056,38.3712
		c-0.8536,12.0179-0.4547,20.4939,5.2151,35.4259c3.2706,8.6134,18.6028,22.5008,26.3039,27.9568
		c29.3735,20.8105,62.5066,18.6374,96.4034,6.5461c11.3502-4.0487,22.5251-10.0227,34.6758-9.492
		c16.1171,0.704,29.9324,12.7388,46.0279,13.8775c12.6213,0.8929,24.9247-5.3082,33.2609-14.334
		c8.3362-9.0258,13.1476-20.5917,16.2843-32.3072C298.7034,204.9264,305.545,179.8887,299.6836,156.8832z"/>
	<path style="&st1;" d="M54.4204,228.0077c-1.7922-0.4833-3.8921-0.6611-5.3324,0.5098c-1.0733,0.8726-1.5213,2.3048-1.6849,3.6783
		c-0.417,3.5007,0.6987,7.1083,2.8032,9.9367c2.1045,2.8284,5.1462,4.8954,8.4651,6.0842c1.368,0.49,2.9456,0.8223,4.2272,0.1372
		c0.7345-0.3927,1.2731-1.0764,1.6808-1.8026c1.9403-3.4557,2.3188-8.3478-0.0302-11.5399
		C62.0339,231.5934,58.0924,228.998,54.4204,228.0077z"/>
</g>
<g id="Eye">
	<path style="&st2;" d="M222.4666,128.8089c-3.5926-6.0667-10.0049-9.1807-17.397-7.4505
		c-5.1331,1.2014-13.1935,7.0527-15.8275,11.4329c-7.6598,12.7378-9.4778,28.7424-4.3438,42.7383
		c1.9813,5.4011,5.076,10.624,9.8554,14.0728c4.7794,3.4488,11.4598,4.8137,16.8151,2.396
		c2.5432-1.1481,4.6333-3.0423,6.4814-5.0692c7.9444-8.7129,10.2885-16.9216,11.0342-28.5356
		C229.6578,149.4652,230.1003,141.6996,222.4666,128.8089z"/>
</g>
<g id="Eye_pupil">
	<path style="&st3;" d="M208.1173,147.4894c-2.6205-2.4766-7.5503-1.4335-10.8616,0.0166
		c-3.3113,1.4501-5.6695,4.4678-6.8596,7.7709c-1.1901,3.3032-1.323,6.8849-1.1005,10.3888
		c0.3132,4.9312,1.31,9.8298,2.9557,14.5262c1.0163,2.9002,2.4067,5.88,5.0237,7.6396c3.6225,2.4358,8.8011,1.7794,12.3281-0.702
		c3.527-2.4814,5.6338-6.4252,6.9382-10.4403c1.7222-5.3008,0.6296-11.0191-1.0341-16.3759
		C213.8436,154.9565,211.048,150.2592,208.1173,147.4894z"/>
</g>
<g id="Eye_lid">
	<path style="&st0;" d="M186.3156,141.0554c5.7631,1.6979,14.2187-1.9445,19.3654-2.1728c3.748-0.1663,8.1802,1.3242,11.7307,4.1568
		c4.8913,3.9021,14.3477,14.0638,11.9286,10.4267c0.8604-7.8046-0.3047-15.8303-3.3615-23.1557
		c-1.1052-2.6485-2.4873-5.2526-4.5769-7.2899c-1.3333-1.3-2.9275-2.3393-4.6279-3.1496
		c-4.4532-2.1223-9.8003-2.6374-14.4032-0.9464c-1.9543,0.7179-3.7353,1.8041-5.4243,2.9837
		c-5.4355,3.7962-10.2163,8.9214-11.7769,15.2151c-0.211,0.8508-0.3598,1.7527-0.1036,2.5975S186.0877,141.3303,186.3156,141.0554z"
		/>
</g>
<g id="Nostrils">
	<path style="&st4;" d="M69.9121,176.9025c-2.5867-1.5654-5.9793-0.6271-8.6582,0.7248c-2.9732,1.5005-6.0034,4.117-5.5523,7.332
		c0.381,2.7153,3.209,4.6013,6.0135,5.1283c3.6378,0.6835,7.7418-0.5389,9.7878-3.4713
		C73.5489,183.6837,73.1052,178.8349,69.9121,176.9025z"/>
	<path style="&st4;" d="M43.6683,171.8683c-0.6734-1.8137-3.7131-1.6729-4.8755-0.1257s-0.9565,3.6696-0.567,5.5554
		c0.2776,1.3444,0.6463,2.7237,1.5349,3.8031s2.4281,1.7802,3.7721,1.3403c1.2119-0.3967,1.9505-1.5878,2.2684-2.7788
		C46.5689,176.7863,44.4511,173.9765,43.6683,171.8683z"/>
</g>
<g id="Right_arm">
	<path style="&st0;" d="M241.1603,278.39c22.3221,19.1238,55.2335,40.595,56.8971,63.5228c0.0739,1.0189,0.0515,2.1526-0.206,3.1501
		c-0.5024,1.9466-2.9466,6.3007-8.4275,4.4303c-1.76-0.6006-3.4922-2.0273-4.8965-3.4671
		c-2.4177-2.4787-10.8388-11.3935-17.0965-17.8091c-9.9804-10.2323-19.9953-20.5051-28.4072-31.9803
		c-2.4787-3.3814-4.9193-7.3266-4.1168-11.4504C235.7094,280.6625,241.6416,277.5705,241.1603,278.39z"/>
</g>
<g id="Ear">
	<path style="&st0;" d="M273.5426,133.8535c-0.7136-6.0343,0.7162-13.4495,5.2276-18.4229
		c4.5114-4.9734,10.5479-8.9007,17.3607-9.9491c9.1934-1.4147,19.1387,2.9919,24.0507,10.6567
		c2.6312,4.1057,3.8483,8.9012,4.4224,13.6699c0.9384,7.7941,0.1961,15.9173-3.3712,22.9247
		c-3.5673,7.0074-10.2107,12.759-18.1966,14.311c-7.9859,1.5521-17.1168-1.6863-21.2771-8.4767"/>
</g>
<g id="mouth">
</g>
</svg>
